<?xml version="1.0" encoding="UTF-8"?><svg id="Layer_2" xmlns="http://www.w3.org/2000/svg" viewBox="0 0 180 175.35"><defs><style>.cls-1{fill:gray;}</style></defs><g id="Layer_1-2"><path class="cls-1" d="M87.98,0l8.09.13c52.09,3.23,89.25,46.72,83.31,97.85-5.63,48.48-51.15,82.59-100.29,76.71C24.39,168.15-11.44,115.84,3.34,63.34,13.85,26.03,48.53.31,87.98,0ZM85.45,4.27C34.02,6.54-3.15,51.4,5.38,101.5c8.88,52.17,65.32,83.08,115.62,64.11,43.58-16.44,65.78-63.6,49.72-107.08C157.74,23.4,123.19,2.6,85.45,4.27Z"/><path class="cls-1" d="M78.97,53.55c-.02.06-.28.31-.36.35-.44.2-4.07.2-4.17-.2l.05-20.29c.41-.4,4.63-.29,5.12.13l4.94,10.44.49.41,5.42-10.68c.42-.44.68-.48,1.27-.53,1.07-.1,3.06-.19,3.9.45v19.91c0,.61-3.13.52-3.7.43-.33-.05-.6-.19-.83-.43v-11.29c-.43-.09-.29.05-.41.23-1.59,2.43-2.64,5.79-4.21,8.3-.31.58-2.6.46-2.94.14-1.58-2.54-2.56-5.99-4.16-8.44-.12-.18.02-.32-.41-.23v11.29Z"/><path class="cls-1" d="M100.59,33.37h9.59c.23,0,1.36.38,1.66.5,3.94,1.61,4.59,6.9.97,9.19,4.12,2.55,3.99,8.52-.73,10.31-2.11.8-8.22.85-10.59.63-.47-.04-.84-.07-1.17-.45v-19.91l.27-.27ZM105.03,41.55h3.35c1.03,0,2.11-1.18,2.07-2.21-.04-1.1-1.17-2.06-2.25-2.06h-3.17v4.27ZM105.3,45.46l-.27.27v3.73s-.15.11-.14.18l.23.27h3.44c.29,0,1.44-.39,1.73-.61,1.14-.87.9-2.93-.42-3.52-.11-.05-1.07-.31-1.13-.31h-3.44Z"/><path class="cls-1" d="M38.07,41.2c.18-.06.39.18.45.18h5.79l.27-.27v-7.47s.28-.31.36-.35c.32-.15,3.42-.17,3.88-.09.2.04.64.31.64.44v19.91c0,.62-3.12.5-3.72.45-.39-.03-1.17-.11-1.17-.63v-7.56h-6.24l-.27.27v7.47c-.08.12-.18.18-.31.23-.66.23-4.39.5-4.39-.23v-20.18c.9-.15,3.62-.42,4.34-.09.09.04.36.32.36.35v7.56Z"/><path class="cls-1" d="M68.8,60.98c8.97-1,11.72,6.59,10.31,14.04-1.89,10-16.87,9.42-17.84-1.04-.53-5.7.65-12.23,7.54-13ZM69.52,65.24c-3.45.49-3.82,4.96-3.57,7.68.6,6.58,8,6.54,8.66.34.38-3.55-.23-8.71-5.09-8.02Z"/><path class="cls-1" d="M54.18,33.64c.02-.06.28-.31.36-.35.55-.25,3.8-.27,4.34.35v13.87c0,.07.37.83.46.97,1.23,1.87,4.04,1.98,5.3.07.1-.16.57-1.14.57-1.22v-13.69c0-.32.72-.43.98-.46.58-.06,3.72-.15,3.72.46v14.22c0,6.93-11.82,8.92-14.99,2.64-.15-.3-.76-1.89-.76-2.1v-14.76Z"/><path class="cls-1" d="M107.92,69.46c.42.1.3-.08.41-.23,2.02-2.52,3.61-5.41,5.74-7.87.31-.15,3.73-.16,4.26-.1.38.05.75.2.74.63-.02.9-5.75,7.2-6.23,8.68l6.75,10.58-.09.56h-4.98l-4.79-7.74c-.3-.23-1.63,1.32-1.63,1.43v6.04l-.27.27h-4.16l-.27-.27v-19.91l.27-.27h3.98l.27.27v7.91Z"/><path class="cls-1" d="M95.35,68.22c-.82-1.67-1.49-2.97-3.62-3.03-4.78-.15-4.91,6.96-3.74,10.09,1.34,3.59,6.45,3.36,7.12-.45.17-.11,3.67-.09,4.05-.03,1.03.19.04,2.52-.24,3.14-2.53,5.61-11.59,5.52-14.72.36-1.96-3.22-1.99-10.07-.11-13.33,3.36-5.84,13.39-5.37,15.26,1.3.09.31.56,1.96,0,1.96h-3.98Z"/><path class="cls-1" d="M53.29,74.82c.93.2,4.76-.65,4.69.76-.05.91-1.19,3.18-1.81,3.93-3.02,3.65-10.02,3.45-13.02-.18s-2.77-11.87.03-15.43c3.6-4.59,12.2-3.85,14.22,1.79.18.51.78,2.29.11,2.51l-4.14-.15c-.61-3.25-5.02-3.9-6.72-1.1-1.1,1.82-1.1,6.88-.2,8.78,1.48,3.11,6.46,2.65,6.85-.91Z"/><path class="cls-1" d="M137.06,46.08l-6.37-11.87-.13-.82c.19-.27,4.47-.38,5.04.08l3.9,7.9,3.98-8h4.52c.09,0,.3.3.28.45l-6.34,12.27v7.47s-.28.31-.36.35c-.32.15-3.42.17-3.88.09-.2-.04-.64-.31-.64-.44v-7.47Z"/><path class="cls-1" d="M128.01,74c-1.89-3.82-4.19-7.46-6.07-11.28-.35-.7-.73-1.31.36-1.44.65-.08,3.77-.07,4.18.17,1.03.6,2.83,6.73,4.06,7.83l3.71-8h4.52c.09,0,.3.3.28.45l-6.34,12.27v7.29c0,.06-.24.27-.18.44h-4.25l-.27-.27v-7.47Z"/><path class="cls-1" d="M124.39,49.55h7.69l.27.27v4h-12.4l-.27-.27v-19.91c.11-.18.25-.23.45-.27.95-.17,3.36-.15,4.25.27v15.91Z"/><path class="cls-1" d="M139.05,114.62H37.08c-.53,0-.53-1.24,0-1.24h101.7c.41,0,.51.91.27,1.24Z"/><path class="cls-1" d="M109.37,127.07l1.1-4.96c.26-.04,1.77-.24,1.8.09l-2.08,8.26-1.71.16-1.37-4.96-1.44,4.8-1.71.15-2.19-8.51,1.79.02c.19.16.91,4.06,1.1,4.7.08.26-.1.31.37.26.31-1.02.77-4.16,1.28-4.88.29-.4.83-.35,1.26-.2.34.22,1.12,3.92,1.43,4.64.08.18.12.41.37.44Z"/><path class="cls-1" d="M42.78,130.36l-.3.24c-.47.1-1.33.12-1.48-.46l.05-7.88c.21-.3,1.64-.29,1.92.08l2.25,4.36,2.29-4.59c.62,0,1.51-.24,1.96.24v8.09c-.58.13-1.34.43-1.81-.09v-4.27s.17-.19.19-.35l-.36-.09c-.45.85-1.27,3.68-2.44,3.56l-.54-.37-1.73-3.19v4.71Z"/><path class="cls-1" d="M83.49,135.42l1.73.17,3.34,4.99v-5.16l1.51.02.27.27-.05,7.9c-.2.28-1.34.25-1.65,0l-3.33-4.99v4.89c-.39.42-1.42.42-1.81,0v-8.09Z"/><path class="cls-1" d="M84.04,125.29v5.07c-.39.46-1.08.22-1.63.27v-8.53l1.72.18,3.17,4.98v-4.89c.3-.6,1.81-.53,1.81,0v8c-.31.4-1.37.4-1.72.09l-3.35-5.16Z"/><path class="cls-1" d="M125.66,135.69c.13-.4,1.38-.35,1.73-.1.49.35,2.37,3.78,2.93,4.58.11.16-.03.33.4.23v-4.98h1.63v8.36l-1.59-.04-3.29-5.12v4.89c-.39.42-1.42.42-1.81,0v-7.82Z"/><path class="cls-1" d="M92.54,143.78v-8.36h4.07c.09,0,.82.36.98.46,2.27,1.28,2.21,5.96.07,7.34-.16.1-1.16.56-1.24.56h-3.89ZM94.35,142.18c1.65.1,2.9,0,3.09-1.86.27-2.67-.44-3.62-3.27-3.3-.09.06.18.23.18.26v4.89Z"/><path class="cls-1" d="M52.28,135.42c3.15.52,3.42,6.27,1.06,7.79-.16.1-1.16.56-1.24.56h-3.62l-.27-.27v-8.09c1.24.14,2.89-.19,4.07,0ZM50.02,142.18c2.71.28,3.31-1.07,3.08-3.48-.17-1.82-1.55-1.76-3.08-1.68v5.16Z"/><path class="cls-1" d="M66.12,153.2v-4.71c0-.41,1.36-.69,1.65-.18.18.21-.03.3-.03.36v7.73l-1.54-.18c-1.06-1.47-1.91-3.09-2.94-4.57-.11-.16.03-.33-.4-.23v4.71c-.39.46-1.08.22-1.63.27v-8.09c.38-.46,1.19-.33,1.62,0l3.27,4.88Z"/><path class="cls-1" d="M70.65,122.09v3.38h3.08v-3.11c.43-.49,1.21-.2,1.81-.27v8.27c-.39.42-1.42.42-1.81,0v-3.29h-3.08v3.29c-.39.42-1.42.42-1.81,0v-8.27h1.81Z"/><path class="cls-1" d="M81.68,148.23c.23-.36,3.78-.09,4.39.04,2.73.57,2.91,6.09.84,7.5-.19.13-1.23.63-1.35.63h-3.62l-.27-.27v-7.91ZM83.49,154.8c2.67.4,3.33-.9,3.09-3.3-.19-1.92-1.39-1.94-3.09-1.86v5.16Z"/><path class="cls-1" d="M112.54,135.42c2.4.39,2.96,4.03.62,4.91l1.64,3.44c-2.86.8-2.12-3.07-4.34-3.2v2.93c-.39.42-1.42.42-1.81,0v-8.09c1.19.14,2.76-.18,3.89,0ZM110.46,139.16c3.43.53,3.3-2.67,0-2.31v2.31Z"/><path class="cls-1" d="M56.89,143.78v-8.36h3.89c.13,0,.91.41,1.09.53,1.21.86,1.36,2.68.42,3.8-.26.31-.89.51-.85.88l1.6,2.87c-2.37,1.46-2.42-1.82-3.53-2.75-1.5-1.26-.79,2.45-1.07,2.85l-1.55.17ZM58.52,139.16c3.51.61,3.48-2.84,0-2.31v2.31Z"/><path class="cls-1" d="M131.27,122.09v3.38h3.08v-3.38h1.81v8.27c-.39.42-1.42.42-1.81,0v-3.29h-3.08v3.29c-.36.41-1.27.41-1.63,0v-8.27h1.63Z"/><path class="cls-1" d="M117.58,136.02c.79-.72,2.06-.9,3.09-.76,4.54.61,3.93,9.47-1.35,8.62-3.47-.56-3.89-5.9-1.74-7.86ZM119.82,136.71c-2.96.26-2.16,7.06,1.02,5.45,1.64-.83,1.61-5.68-1.02-5.45Z"/><path class="cls-1" d="M103.35,148.09c3.46-.58,4.91,1.93,4.55,5.01-.27,2.31-1.93,3.85-4.37,3.44-3.94-.66-3.78-7.85-.18-8.45ZM103.71,149.51c-2.44.55-1.65,7.27,1.63,5.33,1.39-.82,1.59-6.06-1.63-5.33Z"/><path class="cls-1" d="M127.29,124.58l-1.6-.03c-.25-2.13-3.38-.92-2.15.34.89.91,3.64.59,3.92,2.82.48,3.78-5.29,3.9-6.01,1.1-.26-1,.55-1.07,1.38-.82.39.12.51.69.85.94,1.08.79,2.81-.44,1.62-1.41s-3.8-.8-3.8-3.21c0-3.42,6.09-3.32,5.79.27Z"/><path class="cls-1" d="M55.94,122.14c.38.98,3.01,7.89,2.68,8.32-.19.25-1.1.24-1.38.08-.38-.22-.39-1.24-.63-1.52-.32-.38-2.29-.11-2.87-.15l-.84,1.67-1.63-.09,3.07-8.44,1.59.14ZM55.26,124.58c-.46-.07-.28.04-.38.25-.13.27-.8,2.33-.71,2.42h1.81s-.72-2.67-.72-2.67Z"/><path class="cls-1" d="M91.46,122.09l4.95-.16c.48.16.27,1.06.3,1.46-.04.12-.41.3-.46.3h-2.99v1.78h2.8c.42.36.42,1.24,0,1.6h-2.8v1.96h3.44c-.05.54.2,1.22-.27,1.6h-4.7l-.27-.27v-8.27Z"/><path class="cls-1" d="M117.47,122.13l2.74,8.21c-2.02,1.11-1.59-.42-2.18-1.21-.38-.51-2.42-.3-3.08-.18l-.55,1.65-1.43-.06,2.58-8.41c.59-.37,1.3-.22,1.91,0ZM117.51,127.24c-.39-.78-.53-1.67-.82-2.49-.06-.17-.02-.41-.26-.36l-.91,2.84h1.99Z"/><path class="cls-1" d="M95.62,149.65h-3.17c-.5.42-.2,1.19-.27,1.78h3.08c-.05.54.2,1.22-.27,1.6h-2.8v1.78h2.99c.66,0,.59,1.17.45,1.6h-5.25v-7.91c0-.13.44-.4.64-.44.41-.08,4.02-.08,4.31.02l.27.27.03,1.31Z"/><path class="cls-1" d="M76.23,143.76l-1.6.02,2.7-8.24c.47-.35,1.35-.37,1.82-.02.67.51,2.16,6.85,2.9,7.99-1.59.9-1.9-.13-2.34-1.43-1.9-.18-3.14-.56-3.47,1.67ZM79.15,140.58l-.9-2.84-.91,2.84h1.81Z"/><path class="cls-1" d="M75.53,150.72c-.42-.05-1.1.12-1.45-.09-.41-.25-.66-1.84-2.09-1-.26.32-.5.77-.24,1.15.7,1.02,3.31.62,3.84,2.64.97,3.65-4.94,4.28-5.77,1.39-.31-1.09,1.08-1.14,1.52-.87.08.05.13.54.39.77,1.18,1.03,3.04-.22,1.8-1.23-1.05-.85-3.18-.65-3.57-2.54-.79-3.81,5.97-3.99,5.57-.22Z"/><path class="cls-1" d="M111.54,148.05v5.78c0,1.09,1.92,1.69,2.73.9.14-.13.53-1.12.53-1.26v-5.16c.36-.41,1.27-.41,1.63,0v5.69c0,.99-1.15,2.29-2.16,2.5-2.04.42-4.03-.32-4.34-2.51-.13-.92-.17-4.65-.02-5.5.04-.2.06-.36.3-.42l1.33-.02Z"/><path class="cls-1" d="M66.85,124.76l-1.6-.03c-.3-1.11-1.34-1.7-2.43-1.17-2.16,1.04-1.41,6.32,1.28,5.53,1.23-.36.87-2.01,2.75-1.49.14,3.37-4.48,4.12-6.23,1.59-.89-1.28-.88-4.01-.26-5.39,1.33-2.98,6.46-2.5,6.5.96Z"/><path class="cls-1" d="M87.29,88.75c.11-.35,1.15-.36,1.45-.18l2.89,4.36v-4.44l1.15.02.27.27-.05,6.83c-.22.31-1.13.23-1.38-.09l-2.7-4.01v4c-.36.41-1.27.41-1.63,0v-6.76Z"/><path class="cls-1" d="M116.43,95.78l-1.15-.02-.27-.27c.07-.89-.24-6.66.14-6.92.18-.12,1.05-.15,1.24-.04l2.93,4.41v-4.44l1.15.02.27.27c-.07.89.24,6.66-.14,6.92-.18.12-1.05.15-1.24.04-.43-.24-2.08-3.94-2.93-4.41v4.44Z"/><path class="cls-1" d="M99.6,103.6v-4.18c.35-.42,1.12-.4,1.45,0v7.02c-.46-.02-.97.12-1.37-.17-.72-.51-1.88-3.37-2.7-4.1-.56-.04-.09.19-.09.27v3.73c-.3.4-.86.26-1.33.27l-.26-.49.03-6.63c.21-.28,1.19-.28,1.46,0l2.81,4.27Z"/><path class="cls-1" d="M56.08,88.49h3.26c.43,0,1.46.98,1.68,1.37.77,1.4.58,4.66-.98,5.54-.12.07-1,.38-1.06.38h-2.9l-.27-.27v-6.76l.27-.27ZM57.44,94.36c3.32.51,3.47-5.19,0-4.44v4.44Z"/><path class="cls-1" d="M101.41,95.78v-7.29h3.53c.09,0,.59.27.72.36,2.15,1.41,1.59,6.93-1.08,6.93h-3.17ZM102.86,94.36c3.47.74,3.58-5.38,0-4.44v4.44Z"/><path class="cls-1" d="M85.48,91.69c.19,2.44-.53,4.34-3.36,4.1-2.55-.22-2.69-3.07-2.42-5.06s2.73-3.09,4.5-1.96c1.19.76,1.66,2.79-.06,2.19-.38-.13-.53-1.82-2.24-1.09-1.15.49-1.08,4.11.08,4.45.99.29,2.07-.04,1.86-1.21-1.34.61-1.85-1.42-1.18-1.42h2.8Z"/><path class="cls-1" d="M123.12,101.64l-1.27-.08c-.29-.83-.74-1.28-1.7-1.16-1.81.23-1.87,4.22-.3,4.72,1.1.34,2.13-.12,2-1.34h-1.45s0-1.25,0-1.25l2.72-.1c1.25,5.6-6.42,5.84-5.79-.34.39-3.81,5.51-4.16,5.79-.45Z"/><path class="cls-1" d="M85.44,99.2c2.81-.57,4.24,1.38,4.14,3.93-.18,4.53-5.75,4.42-6.25.9-.24-1.7,0-4.41,2.11-4.83ZM86.17,100.43c-1.91.23-1.8,3.93-.6,4.6,2.91,1.62,3.55-4.95.6-4.6Z"/><path class="cls-1" d="M50.92,100.58h-2.9v1.42s2.42.02,2.42.02l.27.27c.04.17.05.34.04.51-.02.27-.02.51-.31.6l-2.42.02v1.6h2.81c.41.32.42,1.08,0,1.42h-4.16l-.27-.27v-6.76l.27-.27h3.98l.24.29.03,1.13Z"/><path class="cls-1" d="M64.86,89.91v1.42h2.53v1.42h-2.53l-.1,1.43,2.83.25c.3.21.27,1.14-.1,1.34h-3.98l-.27-.27v-6.76l.27-.27h3.98c.42.34.41,1.1,0,1.42h-2.62Z"/><path class="cls-1" d="M76.26,99.6c.2-.7,2.94-.49,3.59-.32s1.48.78,1.62,1.43c.59,2.55-1.3,3.46-3.58,3.25-.1,1.19.57,3-1.34,2.46-.21-.06-.29-.43-.29-.59v-6.22ZM77.88,102.53c2.93.47,2.94-2.43,0-1.96v1.96Z"/><path class="cls-1" d="M57.27,106.43l-.56-1.5-2.27.09-.44,1.35-1.46.08,2.47-7.3c.51.04,1.19-.18,1.49.29l2.36,6.74c-.03.37-1.3.29-1.6.25ZM56.35,103.6l-.72-2.13-.55,2.13h1.27Z"/><path class="cls-1" d="M65.22,101.47l-1.42-.03c-.27-1.88-2.93-.75-1.84.3.71.69,2.85.39,3.22,2.17.71,3.42-5.28,3.69-5.03.4,1.32-.31,1.18.34,1.71.72.45.34,1.13.16,1.63,0l.08-1.06c-1.76-.88-3.63-.8-3.22-3.31.41-2.46,5.12-1.9,4.88.79Z"/><path class="cls-1" d="M66.3,140.14l-2.53-4.71c.49.07,1.41-.15,1.81.09.2.12,1.56,3.11,1.81,2.94.2-.49,1.16-2.76,1.45-2.94.4-.24,1.32-.01,1.81-.09.28.25-2.53,4.45-2.53,4.89v3.2c-.39.42-1.42.42-1.81,0v-3.38Z"/><path class="cls-1" d="M126.77,104.87l-.56,1.49-1.45.08,2.27-6.92c.56-.6,1.4-.6,1.8.17.96,1.8,1.26,4.62,2.25,6.49-.3.4-.87.29-1.33.24l-.84-1.49-2.15-.06ZM128.55,103.6c.07-.07-.37-1.52-.46-1.78-.06-.17-.02-.41-.26-.36l-.55,2.13h1.27Z"/><path class="cls-1" d="M74.45,90.62c-.4-.05-.96.09-1.32,0-.22-.05-.78-1.6-1.77-.64l-.17.54c.1.99,2.97.8,3.25,2.51.39,2.36-1.18,3.07-3.33,2.74-.87-.14-1.85-1.32-1.56-2.22,1.28-.49,1.23.27,1.82.71,1.08.81,2.24-.41,1.37-1.16-1.14-.98-3.19-.26-3.01-2.93.19-2.74,4.85-2.32,4.72.45Z"/><polygon class="cls-1" points="99.42 88.49 99.39 89.62 99.15 89.91 96.52 89.91 96.52 91.33 99.06 91.33 99.06 92.75 96.52 92.75 96.52 94.36 99.42 94.36 99.42 95.78 95.07 95.78 95.07 88.49 99.42 88.49"/><path class="cls-1" d="M120.23,149.91c-.17-.53-1.61-.07-2-.34-.27-.19-.32-1.36.13-1.5l5.51.05.17,1.52h-2.17s0,6.49,0,6.49c-.39.46-1.08.22-1.63.27v-6.49Z"/><path class="cls-1" d="M106.29,100.58v5.6c-.36.41-1.27.41-1.63,0v-5.6l-1.91-.17.19-1.08c.27-.36,4.41-.15,5.17-.1.27.18.26,1.09,0,1.27l-1.82.08Z"/><polygon class="cls-1" points="68.47 100.58 66.48 100.58 66.56 99.32 71.74 99.23 71.91 100.58 69.92 100.58 69.92 106.18 69.62 106.42 68.47 106.44 68.47 100.58"/><path class="cls-1" d="M58.88,148.23v7.91c-.39.42-1.42.42-1.81,0v-7.82c.47-.52,1.23-.22,1.81-.09Z"/><path class="cls-1" d="M77.7,148.31c.12-.37,1.62-.45,1.78.02.2,1.96-.19,3.89-.16,5.85,0,.53.51,1.99-.11,2.19-.37.12-1.26.11-1.51-.24v-7.82Z"/><path class="cls-1" d="M106.29,143.51c-.13.42-1.24.24-1.63.27l-.1-8.19c.2-.28,1.48-.3,1.73.1v7.82Z"/><path class="cls-1" d="M78.07,122.09l1.6.02c.51.32-.25,7.4.03,8.51-.55-.05-1.24.2-1.63-.27v-8.27Z"/><path class="cls-1" d="M112.99,88.49v7.02c-.36.41-1.27.41-1.63,0v-6.76c.39-.46,1.08-.22,1.63-.27Z"/><path class="cls-1" d="M77.88,88.49v7.02c-.36.41-1.27.41-1.63,0v-6.76c.39-.46,1.08-.22,1.63-.27Z"/><path class="cls-1" d="M93.08,106.44h-1.45v-7.02c.35-.42,1.12-.4,1.45,0v7.02Z"/><path class="cls-1" d="M111.54,104.84c-.06.94.28,1.89-.55,2.57-.48.4-1.18.73-1.24-.06l.88-.65-.72-.26.08-1.43,1.55-.17Z"/></g></svg>